# xmcd
#
# Track frame offsets: 
#        150
#        11558
#        32509
#        53293
#        65341
#        88563
#        101803
#        115809
#        129285
#        146001
#
# Disc length: 2149 seconds
#
# Revision: 0
# Processed by: cddbd v1.5.2PL0 Copyright (c) Steve Scherf et al.
# Submitted via: ExactAudioCopy v1.3
#
DISCID=7708630a
DTITLE=Dutch Mason - Gimme A Break
DYEAR=1981
DGENRE=Blues
TTITLE0=You Fool Around Too
TTITLE1=Trouble No More
TTITLE2=Nothing Left To Lose
TTITLE3=That's Life
TTITLE4=Tryin' To Find My Baby
TTITLE5=Long Distance Feelin'
TTITLE6=It's All Wrong
TTITLE7=Don't Tell Me
TTITLE8=I Got A Woman
TTITLE9=10. Go Down Gamblin' — Dutch Ma
EXTD=
EXTT0=
EXTT1=
EXTT2=
EXTT3=
EXTT4=
EXTT5=
EXTT6=
EXTT7=
EXTT8=
EXTT9=
PLAYORDER=
